<svg width="20" height="19" viewBox="0 0 20 19" fill="none" xmlns="http://www.w3.org/2000/svg">
<path d="M10.0038 5.23208C7.64365 5.23208 5.73994 7.13579 5.73994 9.49595C5.73994 11.8561 7.64365 13.7598 10.0038 13.7598C12.364 13.7598 14.2677 11.8561 14.2677 9.49595C14.2677 7.13579 12.364 5.23208 10.0038 5.23208ZM10.0038 12.268C8.47861 12.268 7.23174 11.0249 7.23174 9.49595C7.23174 7.96704 8.4749 6.72388 10.0038 6.72388C11.5327 6.72388 12.7759 7.96704 12.7759 9.49595C12.7759 11.0249 11.529 12.268 10.0038 12.268ZM15.4366 5.05767C15.4366 5.6106 14.9913 6.0522 14.4421 6.0522C13.8892 6.0522 13.4476 5.60688 13.4476 5.05767C13.4476 4.50845 13.8929 4.06313 14.4421 4.06313C14.9913 4.06313 15.4366 4.50845 15.4366 5.05767ZM18.2606 6.06704C18.1976 4.73481 17.8933 3.55474 16.9173 2.58247C15.945 1.6102 14.7649 1.30591 13.4327 1.23911C12.0597 1.16118 7.94424 1.16118 6.57119 1.23911C5.24268 1.3022 4.0626 1.60649 3.08662 2.57876C2.11064 3.55103 1.81006 4.7311 1.74326 6.06333C1.66533 7.43638 1.66533 11.5518 1.74326 12.9249C1.80635 14.2571 2.11064 15.4372 3.08662 16.4094C4.0626 17.3817 5.23896 17.686 6.57119 17.7528C7.94424 17.8307 12.0597 17.8307 13.4327 17.7528C14.7649 17.6897 15.945 17.3854 16.9173 16.4094C17.8896 15.4372 18.1938 14.2571 18.2606 12.9249C18.3386 11.5518 18.3386 7.44009 18.2606 6.06704ZM16.4868 14.3981C16.1974 15.1254 15.637 15.6858 14.906 15.979C13.8112 16.4131 11.2136 16.3129 10.0038 16.3129C8.79404 16.3129 6.19268 16.4094 5.10166 15.979C4.37432 15.6895 3.81396 15.1292 3.5208 14.3981C3.08662 13.3034 3.18682 10.7057 3.18682 9.49595C3.18682 8.28618 3.09033 5.68481 3.5208 4.5938C3.81025 3.86646 4.37061 3.3061 5.10166 3.01294C6.19639 2.57876 8.79404 2.67895 10.0038 2.67895C11.2136 2.67895 13.8149 2.58247 14.906 3.01294C15.6333 3.30239 16.1937 3.86274 16.4868 4.5938C16.921 5.68853 16.8208 8.28618 16.8208 9.49595C16.8208 10.7057 16.921 13.3071 16.4868 14.3981Z" fill="black"/>
</svg>
